<svg xmlns="http://www.w3.org/2000/svg" xmlns:xlink="http://www.w3.org/1999/xlink" width="900" zoomAndPan="magnify" viewBox="0 0 675 374.999991" height="500" preserveAspectRatio="xMidYMid meet" version="1.0"><rect x="-67.5" width="810" fill="#ffffff" y="-37.499999" height="449.999989" fill-opacity="1"/><rect x="-67.5" width="810" fill="#7859b6" y="-37.499999" height="449.999989" fill-opacity="1"/><rect x="-67.5" width="810" fill="#ffffff" y="-37.499999" height="449.999989" fill-opacity="1"/><rect x="-67.5" width="810" fill="#ffffff" y="-37.499999" height="449.999989" fill-opacity="1"/><path fill="#7859b6" d="M -86.300781 187.4375 L -86.300781 611.1875 L 761.199219 611.1875 L 761.199219 -236.3125 L -86.300781 -236.3125 Z M 177.140625 73.472656 C 193.109375 80.757812 198.734375 101.113281 188.890625 116.007812 L 186.074219 120.226562 L 192.035156 121.640625 C 224.644531 129.417969 250.21875 150.023438 260.152344 176.59375 C 262.710938 183.464844 262.957031 183.710938 265.863281 184.292969 C 268.917969 184.957031 275.378906 183.789062 275.378906 182.632812 C 275.292969 182.308594 274.136719 181.308594 272.644531 180.398438 C 265.695312 176.011719 264.203125 167.574219 269.5 162.355469 C 271.65625 160.121094 272.730469 159.707031 276.042969 159.707031 C 282.820312 159.707031 287.128906 164.507812 287.296875 172.207031 C 287.296875 174.6875 287.710938 176.675781 288.117188 176.675781 C 289.945312 176.675781 295.984375 169.144531 297.308594 165.171875 C 299.046875 159.875 300.699219 160.042969 300.453125 165.417969 C 299.957031 174.113281 294.492188 181.554688 287.210938 183.542969 C 285.0625 184.125 282.910156 185.28125 282.25 186.359375 C 279.765625 190.085938 270.332031 194.550781 264.28125 194.886719 C 264.28125 194.886719 264.125 198.355469 264.035156 202.585938 C 263.710938 219.136719 256.671875 234.859375 243.757812 248.101562 L 238.714844 253.230469 L 233.085938 270.199219 C 229.191406 281.703125 226.878906 287.660156 225.632812 288.570312 C 224.148438 289.816406 222.164062 290.0625 212.894531 290.0625 C 199.316406 290.0625 198.988281 289.816406 198.574219 280.210938 L 198.238281 273.925781 L 202.707031 272.355469 C 205.109375 271.445312 209.25 269.707031 211.898438 268.382812 L 216.609375 266.058594 L 216.609375 188.929688 L 205.859375 199.105469 L 195.097656 209.207031 L 195.097656 275.003906 L 192.527344 275.910156 C 191.042969 276.40625 188.96875 276.820312 187.980469 276.820312 L 185.996094 276.820312 L 185.996094 218.722656 L 182.515625 221.785156 C 180.53125 223.515625 175.648438 228.152344 171.585938 232.042969 L 164.226562 239.160156 L 164.144531 259.191406 L 164.144531 279.300781 L 155.371094 279.300781 L 155.371094 236.601562 L 145.269531 226.667969 C 136.167969 217.8125 135.09375 216.984375 134.84375 218.800781 C 134.597656 220.292969 135.261719 221.371094 137.078125 222.773438 C 141.386719 226.164062 144.035156 231.628906 144.035156 237.015625 C 144.035156 239.664062 143.453125 242.71875 142.710938 244.210938 C 141.21875 247.105469 137.246094 250.75 134.675781 251.582031 C 133.105469 252.074219 133.027344 252.816406 133.027344 264.160156 L 133.027344 276.160156 L 129.378906 275.664062 L 125.742188 275.082031 L 125.160156 279.882812 C 124.5 285.261719 122.925781 288.816406 121.019531 289.570312 C 120.277344 289.816406 115.0625 290.0625 109.515625 290.0625 C 99.832031 290.0625 99.171875 289.984375 97.351562 288.078125 C 96.027344 286.753906 93.546875 280.625 89.742188 269.042969 L 84.1875 251.988281 L 93.875 242.636719 C 99.257812 237.507812 109.605469 227.65625 116.886719 220.789062 C 124.171875 213.921875 130.625 207.714844 131.289062 206.964844 C 131.859375 206.222656 132.9375 205.640625 133.519531 205.640625 C 134.183594 205.640625 140.308594 210.855469 147.089844 217.230469 C 154.875 224.515625 160.085938 228.8125 161.160156 228.8125 C 162.734375 228.8125 176.558594 215.984375 210.574219 182.96875 L 216.609375 177.167969 L 220.75 181.230469 C 222.984375 183.464844 225.058594 185.113281 225.21875 184.867188 C 225.800781 184.292969 230.1875 158.550781 229.773438 158.136719 C 229.445312 157.808594 204.03125 161.78125 203.457031 162.277344 C 203.289062 162.445312 204.691406 164.261719 206.601562 166.417969 C 208.417969 168.480469 209.742188 170.546875 209.496094 170.960938 C 208.585938 172.535156 161.824219 217.230469 161.160156 217.230469 C 160.746094 217.230469 155.125 212.261719 148.75 206.222656 C 142.296875 200.261719 136.335938 194.964844 135.425781 194.550781 C 134.507812 194.136719 133.183594 194.136719 132.195312 194.550781 C 131.367188 194.964844 118.875 206.46875 104.46875 220.125 C 90.148438 233.785156 77.902344 244.960938 77.410156 244.960938 C 76.828125 244.960938 74.265625 242.3125 71.53125 239.160156 C 68.882812 235.9375 65.816406 232.875 64.742188 232.292969 C 63.585938 231.71875 59.117188 230.304688 54.648438 229.148438 C 39.332031 225.097656 39.5 225.421875 39.5 203.742188 C 39.5 184.789062 39.332031 185.113281 48.523438 184.125 C 58.121094 183.046875 59.945312 181.722656 64.828125 171.960938 C 69.957031 161.78125 73.929688 156.316406 82.292969 148.203125 L 88.664062 141.996094 L 87.667969 135.207031 C 86.925781 130.078125 85.929688 127.015625 83.367188 122.382812 C 81.539062 119.070312 80.058594 115.761719 80.058594 115.097656 C 80.058594 112.371094 83.863281 111.046875 89.902344 111.539062 C 99.585938 112.449219 108.359375 116.34375 115.890625 122.875 L 119.617188 126.1875 L 124.417969 124.457031 C 127.148438 123.539062 132.195312 122.054688 135.832031 121.226562 C 139.398438 120.316406 142.453125 119.484375 142.621094 119.40625 C 142.710938 119.238281 141.714844 117.5 140.390625 115.433594 C 129.628906 99.375 137.988281 77.191406 156.941406 71.8125 C 162.734375 70.164062 171.585938 70.90625 177.140625 73.472656 Z M 336.375 125.117188 C 330.828125 141.828125 328.675781 146.554688 325.117188 150.277344 C 320.898438 154.578125 315.265625 156.8125 308.644531 156.8125 C 305.085938 156.8125 305.007812 156.730469 305.589844 154.5 C 306.410156 151.019531 310.058594 145.230469 314.109375 140.921875 C 316.183594 138.6875 317.417969 136.949219 317.003906 136.949219 C 315.519531 136.949219 304.761719 147.460938 303.101562 150.527344 C 302.191406 152.175781 301.203125 153.5 300.867188 153.5 C 299.957031 153.5 300.953125 144.726562 302.359375 140.257812 C 304.007812 134.882812 307.734375 130.742188 313.695312 127.847656 C 319.652344 124.949219 324.128906 123.953125 331.570312 123.792969 C 336.207031 123.707031 336.789062 123.875 336.375 125.117188 Z M 284.402344 132.558594 C 289.035156 134.050781 294.660156 138.359375 296.398438 141.828125 C 297.644531 144.320312 298.710938 151.019531 297.804688 151.019531 C 297.476562 151.019531 296.0625 149.617188 294.660156 147.878906 C 293.257812 146.21875 290.855469 144.0625 289.363281 143.242188 L 286.546875 141.582031 L 289.609375 145.0625 C 292.257812 147.957031 296.0625 154.164062 296.0625 155.574219 C 296.0625 156.316406 290.027344 155.980469 286.792969 155.160156 C 283.40625 154.164062 279.183594 151.019531 277.691406 148.203125 C 277.199219 147.292969 275.707031 142.996094 274.46875 138.765625 L 272.226562 131.15625 L 276.199219 131.15625 C 278.355469 131.15625 282.082031 131.738281 284.402344 132.558594 Z M 566.707031 161.78125 C 568.773438 163.847656 568.773438 166 566.867188 168.480469 C 563.8125 172.207031 556.777344 169.804688 556.777344 165.003906 C 556.777344 162.601562 559.75 160.121094 562.566406 160.121094 C 563.972656 160.121094 565.796875 160.871094 566.707031 161.78125 Z M 342.410156 168.816406 L 342.410156 172.453125 L 332.320312 172.703125 L 322.140625 172.949219 L 321.886719 176.84375 L 321.640625 180.816406 L 339.929688 180.816406 L 339.929688 189.085938 L 321.726562 189.085938 L 321.726562 197.367188 L 332.480469 197.367188 C 344.488281 197.367188 343.410156 196.785156 343.488281 203.160156 L 343.578125 205.234375 L 328.101562 205.480469 L 312.617188 205.640625 L 312.617188 165.09375 L 342.410156 165.09375 Z M 371.136719 175.101562 C 373.945312 176.101562 378.007812 179.90625 378.007812 181.398438 C 378.007812 181.972656 376.59375 183.128906 374.855469 184.046875 L 371.632812 185.695312 L 369.894531 183.878906 C 367.078125 181.140625 361.867188 181.398438 359.21875 184.539062 C 357.480469 186.527344 357.234375 187.515625 357.5625 190.667969 C 358.300781 197.695312 365.089844 200.429688 370.0625 195.796875 L 371.878906 194.058594 L 375.359375 195.796875 L 378.828125 197.535156 L 377.097656 199.9375 C 374.191406 203.988281 369.480469 205.894531 363.105469 205.480469 C 358.636719 205.234375 356.820312 204.730469 354.171875 202.832031 C 344.566406 196.210938 345.476562 181.0625 355.820312 175.933594 C 359.792969 174.027344 367.164062 173.609375 371.136719 175.101562 Z M 405.972656 175.765625 C 411.527344 178.582031 414.421875 183.464844 414.421875 189.917969 C 414.421875 199.019531 408.464844 204.976562 398.691406 205.480469 C 392.324219 205.894531 387.9375 204.15625 384.378906 199.847656 C 382.304688 197.445312 380.488281 192.734375 380.488281 189.917969 C 380.488281 184.621094 384.378906 178.582031 389.511719 175.84375 C 393.5625 173.699219 401.84375 173.609375 405.972656 175.765625 Z M 429.316406 175.84375 C 429.316406 177.503906 429.316406 177.503906 432.050781 175.84375 C 435.609375 173.609375 442.804688 173.609375 446.453125 175.84375 C 450.996094 178.582031 451.660156 180.984375 451.660156 194.058594 L 451.660156 205.726562 L 447.359375 205.480469 L 442.972656 205.234375 L 442.558594 195.214844 C 442.0625 183.789062 441.480469 182.464844 436.847656 182.464844 C 431.132812 182.464844 430.640625 183.542969 430.144531 195.046875 L 429.730469 205.234375 L 425.015625 205.480469 L 420.214844 205.726562 L 420.214844 174.195312 L 424.769531 174.195312 C 428.742188 174.195312 429.316406 174.363281 429.316406 175.84375 Z M 482.945312 175.933594 C 493.875 181.230469 494.289062 197.03125 483.609375 203.246094 C 479.804688 205.480469 478.804688 205.726562 473.507812 205.480469 C 468.628906 205.234375 467.054688 204.820312 464.238281 202.910156 C 458.863281 199.105469 456.214844 191.578125 458.28125 185.371094 C 459.527344 181.554688 463.667969 176.761719 466.976562 175.351562 C 470.949219 173.609375 478.726562 173.945312 482.945312 175.933594 Z M 506.289062 175.84375 C 506.289062 177.503906 506.289062 177.503906 509.015625 175.84375 C 512.910156 173.453125 519.285156 173.609375 523.167969 176.257812 L 526.152344 178.246094 L 529.125 176.257812 C 533.097656 173.53125 540.136719 173.363281 544.195312 175.84375 C 548.417969 178.492188 549.324219 181.644531 549.324219 194.472656 L 549.324219 205.640625 L 540.222656 205.640625 L 540.222656 195.875 C 540.222656 184.453125 539.394531 182.464844 534.757812 182.464844 C 529.789062 182.464844 528.878906 184.292969 528.21875 195.628906 L 527.554688 205.640625 L 518.699219 205.640625 L 518.699219 197.03125 C 518.699219 185.035156 517.625 182.464844 512.414062 182.464844 C 507.691406 182.464844 506.703125 184.621094 506.457031 195.796875 L 506.121094 205.640625 L 497.1875 205.640625 L 497.1875 174.195312 L 501.734375 174.195312 C 505.707031 174.195312 506.289062 174.363281 506.289062 175.84375 Z M 567.121094 189.917969 L 567.121094 205.234375 L 558.011719 205.234375 L 557.765625 190.746094 C 557.6875 182.800781 557.765625 175.84375 558.011719 175.183594 C 558.257812 174.441406 559.671875 174.195312 562.734375 174.363281 L 567.121094 174.609375 Z M 599.8125 177.257812 C 599.726562 179.984375 598.738281 181.554688 592.441406 189.085938 L 585.078125 197.78125 L 592.6875 198.199219 L 600.226562 198.613281 L 600.226562 205.234375 L 586.402344 205.480469 L 572.5 205.640625 L 572.5 202.585938 C 572.5 199.847656 573.488281 198.355469 580.109375 190.746094 L 587.726562 182.058594 L 580.523438 181.804688 L 573.328125 181.554688 L 573.328125 174.195312 L 599.8125 174.195312 Z M 626.050781 175.101562 C 631.179688 177.011719 635.398438 183.296875 635.398438 189.085938 L 635.398438 192.398438 L 624.222656 192.398438 C 612.058594 192.398438 610.820312 192.980469 615.199219 196.457031 C 617.9375 198.613281 623.480469 198.769531 626.210938 196.875 C 628.035156 195.550781 628.195312 195.628906 630.597656 198.03125 C 633.414062 200.757812 633.167969 201.667969 629.359375 203.742188 C 620.25 208.457031 608.332031 205.144531 604.605469 196.785156 C 601.21875 189.175781 604.28125 179.570312 611.148438 175.933594 C 614.707031 174.027344 622.238281 173.609375 626.050781 175.101562 Z M 376.179688 232.953125 C 376.433594 241.234375 375.605469 244.792969 374.035156 242.3125 C 373.53125 241.480469 372.789062 241.480469 370.804688 242.222656 C 367.660156 243.378906 364.597656 241.730469 363.273438 238.082031 C 361.535156 232.953125 366.582031 227.488281 371.21875 229.5625 C 373.867188 230.800781 373.867188 230.886719 373.867188 227.082031 C 373.867188 224.761719 374.191406 223.851562 374.945312 224.019531 C 375.605469 224.265625 376.019531 226.996094 376.179688 232.953125 Z M 382.800781 225.253906 C 382.394531 227.332031 380.488281 227.578125 380.488281 225.589844 C 380.488281 224.59375 380.980469 223.851562 381.8125 223.851562 C 382.554688 223.851562 382.96875 224.433594 382.800781 225.253906 Z M 437.183594 224.683594 C 438.089844 226.085938 436.765625 227.332031 435.441406 226.253906 C 434.859375 225.757812 434.535156 225.007812 434.78125 224.59375 C 435.363281 223.605469 436.519531 223.683594 437.183594 224.683594 Z M 507.117188 227.164062 C 507.117188 230.800781 507.277344 230.886719 509.679688 229.5625 C 511.664062 228.488281 514.066406 229.226562 516.21875 231.550781 C 520.6875 236.265625 514.976562 244.871094 509.183594 242.222656 C 507.859375 241.648438 507.03125 241.5625 506.703125 242.144531 C 505.289062 244.296875 504.628906 241.144531 504.628906 232.875 C 504.628906 225.421875 504.882812 223.851562 505.875 223.851562 C 506.78125 223.851562 507.117188 224.761719 507.117188 227.164062 Z M 610.238281 233.199219 C 610.320312 239.910156 610.070312 242.054688 609.242188 242.390625 C 608.332031 242.71875 608.085938 240.988281 608.085938 233.289062 C 608.085938 226.007812 608.332031 223.773438 609.164062 224.097656 C 609.824219 224.347656 610.160156 226.996094 610.238281 233.199219 Z M 320.484375 225.503906 C 323.714844 226.746094 322.300781 227.824219 318.167969 227.410156 C 311.796875 226.667969 310.796875 231.304688 317.003906 232.539062 C 324.871094 234.199219 325.699219 240.652344 318.25 242.46875 C 315.355469 243.222656 310.136719 241.480469 310.136719 239.820312 C 310.136719 238.914062 310.550781 238.746094 311.628906 239.25 C 314.601562 240.574219 318.910156 240.574219 319.988281 239.25 C 321.726562 237.171875 320.5625 235.769531 316.429688 234.691406 C 311.796875 233.535156 309.472656 230.71875 310.964844 227.992188 C 312.539062 225.097656 316.511719 224.019531 320.484375 225.503906 Z M 575.808594 227.65625 C 575.808594 228.320312 576.550781 228.8125 577.460938 228.8125 C 578.457031 228.8125 579.121094 229.394531 579.121094 230.136719 C 579.121094 231.054688 578.625 231.382812 577.460938 231.054688 C 575.976562 230.640625 575.808594 231.054688 575.808594 235.523438 C 575.808594 239.820312 575.976562 240.40625 577.460938 240.40625 C 578.378906 240.40625 579.121094 240.820312 579.121094 241.234375 C 579.121094 242.636719 576.886719 243.054688 575.066406 242.054688 C 573.578125 241.3125 573.328125 240.40625 573.328125 236.351562 C 573.328125 232.460938 572.992188 231.382812 571.917969 230.886719 C 570.59375 230.394531 570.59375 230.226562 571.757812 229.394531 C 572.417969 228.8125 573.242188 227.746094 573.578125 226.914062 C 574.238281 225.253906 575.808594 225.757812 575.808594 227.65625 Z M 336.125 231.214844 C 336.867188 231.964844 337.53125 233.535156 337.617188 234.691406 C 337.867188 236.601562 337.617188 236.679688 332.734375 236.925781 C 327.4375 237.171875 326.519531 237.757812 328.761719 239.574219 C 329.585938 240.238281 331.15625 240.40625 333.308594 240.070312 C 336.957031 239.496094 337.777344 240.574219 334.882812 242.144531 C 332.480469 243.378906 327.84375 242.390625 326.273438 240.15625 C 321.726562 233.617188 330.828125 225.34375 336.125 231.214844 Z M 343.242188 234.109375 C 343.242188 238.746094 344.238281 240.40625 346.96875 240.40625 C 349.785156 240.40625 350.691406 238.746094 350.691406 233.535156 C 350.691406 230.058594 350.941406 228.734375 351.769531 228.980469 C 352.34375 229.226562 352.847656 231.382812 353.003906 235.027344 C 353.261719 241.394531 352.757812 243.636719 351.433594 242.3125 C 350.773438 241.648438 349.785156 241.648438 348.042969 242.222656 C 345.976562 242.972656 345.226562 242.804688 343.410156 241.480469 C 341.589844 240.070312 341.085938 239.082031 340.929688 235.433594 C 340.679688 230.640625 341.175781 228.488281 342.410156 229.226562 C 342.828125 229.476562 343.242188 231.71875 343.242188 234.109375 Z M 382.800781 236.351562 C 382.640625 239.742188 382.226562 242.46875 381.730469 242.46875 C 380.8125 242.46875 380.074219 231.796875 380.902344 229.8125 C 381.980469 226.914062 383.054688 230.550781 382.800781 236.351562 Z M 389.175781 229.644531 C 389.511719 230.136719 390.417969 230.136719 391.664062 229.644531 C 396.546875 227.824219 399.855469 231.71875 399.351562 238.664062 C 399.027344 244.210938 397.039062 244.128906 397.039062 238.585938 C 397.039062 232.707031 395.636719 230.640625 392.324219 231.71875 C 390.171875 232.539062 390.003906 232.953125 389.589844 237.421875 C 389.34375 240.324219 388.757812 242.46875 388.1875 242.71875 C 387.355469 242.972656 387.109375 241.234375 387.109375 235.9375 C 387.109375 229.476562 387.769531 227.410156 389.175781 229.644531 Z M 407.882812 229.644531 C 410.699219 228.40625 414.253906 229.8125 415.332031 232.707031 C 416.410156 235.601562 415.996094 242.222656 414.671875 242.71875 C 413.917969 242.886719 413.59375 241.808594 413.59375 238.746094 C 413.59375 233.535156 412.515625 231.304688 409.945312 231.304688 C 407.140625 231.304688 406.308594 232.785156 405.972656 237.925781 C 405.648438 244.378906 404.15625 243.546875 403.828125 236.757812 C 403.582031 230.550781 404.078125 227.65625 405.234375 229.476562 C 405.726562 230.304688 406.390625 230.304688 407.882812 229.644531 Z M 443.882812 229.730469 C 444.21875 230.394531 444.632812 230.394531 445.292969 229.730469 C 445.789062 229.226562 446.699219 228.8125 447.28125 228.8125 C 449.011719 228.8125 448.515625 230.886719 446.53125 231.71875 C 444.960938 232.378906 444.542969 233.367188 444.21875 237.421875 C 443.96875 240.324219 443.386719 242.46875 442.804688 242.71875 C 441.984375 242.972656 441.726562 241.234375 441.726562 235.9375 C 441.726562 229.394531 442.390625 227.410156 443.882812 229.730469 Z M 460.851562 231.214844 C 463.5 233.953125 463.914062 236.601562 461.925781 239.40625 C 460.109375 242.054688 457.210938 242.972656 454.148438 241.976562 C 448.683594 239.988281 448.4375 232.707031 453.734375 229.8125 C 456.460938 228.320312 458.28125 228.65625 460.851562 231.214844 Z M 483.777344 229.316406 C 487.085938 230.226562 485.929688 232.042969 482.371094 231.550781 C 479.972656 231.214844 479.140625 231.460938 478.726562 232.460938 C 478.144531 233.953125 478.480469 234.109375 481.871094 234.941406 C 485.019531 235.769531 486.425781 236.925781 486.425781 238.832031 C 486.425781 241.234375 482.777344 243.132812 479.390625 242.558594 C 475.25 241.730469 475.585938 239.820312 479.882812 239.910156 C 483.53125 239.988281 485.269531 238.339844 482.53125 237.421875 C 477.324219 235.769531 476.492188 235.1875 476.492188 233.289062 C 476.492188 232.292969 477.324219 230.800781 478.3125 230.136719 C 480.386719 228.65625 480.960938 228.566406 483.777344 229.316406 Z M 497.929688 230.058594 C 500.496094 231.304688 501.316406 232.785156 501.316406 235.847656 C 501.316406 238.914062 500.496094 240.40625 497.847656 241.730469 C 489.816406 245.871094 483.945312 234.109375 491.800781 229.8125 C 494.035156 228.566406 495.199219 228.566406 497.929688 230.058594 Z M 537.574219 230.640625 C 538.316406 231.304688 538.394531 231.796875 537.734375 232.460938 C 537.160156 233.042969 536.578125 232.953125 535.914062 232.292969 C 533.515625 229.890625 528.632812 232.378906 528.632812 235.9375 C 528.632812 239.574219 533.433594 241.898438 535.914062 239.40625 C 536.664062 238.664062 537.160156 238.664062 537.824219 239.328125 C 538.980469 240.484375 535.667969 242.886719 532.941406 242.886719 C 530.539062 242.886719 526.152344 238.664062 526.152344 236.265625 C 526.152344 230.640625 533.265625 227.164062 537.574219 230.640625 Z M 551.144531 231.214844 C 551.972656 231.964844 552.804688 233.703125 553.128906 235.1875 C 553.546875 237.421875 553.21875 238.25 551.144531 240.40625 C 549.742188 241.730469 548.082031 242.886719 547.339844 242.886719 C 539.976562 242.886719 537.238281 232.875 543.859375 229.980469 C 546.757812 228.734375 548.988281 229.148438 551.144531 231.214844 Z M 567.371094 230.800781 C 567.945312 231.382812 568.445312 233.703125 568.527344 235.9375 C 568.605469 241.898438 568.445312 242.886719 567.527344 242.886719 C 567.121094 242.886719 566.707031 240.898438 566.707031 238.417969 C 566.707031 233.617188 565.382812 231.304688 562.648438 231.304688 C 560.335938 231.304688 559.335938 233.042969 559.089844 237.925781 C 558.921875 240.484375 558.425781 242.46875 557.851562 242.71875 C 557.023438 242.972656 556.777344 241.3125 556.777344 236.265625 C 556.777344 230.226562 556.933594 229.5625 558.257812 229.980469 C 559.011719 230.226562 560.246094 230.058594 560.90625 229.644531 C 562.398438 228.65625 565.796875 229.316406 567.371094 230.800781 Z M 584.910156 229.730469 C 584.910156 230.226562 585.40625 230.472656 585.988281 230.226562 C 589.714844 228.65625 589.882812 228.65625 589.882812 229.980469 C 589.882812 230.71875 589.378906 231.304688 588.804688 231.304688 C 586.652344 231.304688 585 234.199219 584.742188 238.339844 C 584.417969 243.546875 583.261719 243.378906 583.171875 238.082031 C 582.925781 231.460938 583.261719 228.8125 584.082031 228.8125 C 584.585938 228.8125 584.910156 229.226562 584.910156 229.730469 Z M 603.125 231.964844 C 605.269531 234.691406 605.191406 237.339844 602.789062 240.070312 C 598.902344 244.625 591.53125 242.3125 591.53125 236.601562 C 591.53125 232.707031 592.28125 231.214844 595.011719 230.058594 C 598.242188 228.734375 601.136719 229.394531 603.125 231.964844 Z M 623.976562 231.214844 C 624.804688 231.964844 625.546875 233.449219 625.636719 234.613281 C 625.882812 236.601562 625.636719 236.679688 620.585938 237.09375 C 615.367188 237.507812 615.289062 237.507812 616.78125 239.082031 C 617.9375 240.238281 619.015625 240.484375 621.496094 240.070312 C 623.3125 239.742188 624.636719 239.910156 624.636719 240.40625 C 624.636719 241.480469 621.820312 242.886719 619.675781 242.886719 C 617.441406 242.886719 613.054688 238.585938 613.054688 236.351562 C 613.054688 230.136719 619.675781 226.996094 623.976562 231.214844 Z M 428.988281 230.304688 C 430.472656 231.214844 431.964844 234.613281 431.46875 235.847656 C 431.222656 236.601562 429.316406 237.09375 425.925781 237.261719 C 420.875 237.507812 420.796875 237.507812 422.28125 239.082031 C 423.445312 240.238281 424.511719 240.484375 426.914062 240.070312 C 430.640625 239.496094 431.796875 240.574219 428.820312 241.976562 C 425.511719 243.46875 423.605469 243.054688 420.957031 240.484375 C 418.148438 237.589844 417.890625 234.859375 420.292969 231.796875 C 421.539062 230.136719 422.695312 229.644531 425.015625 229.644531 C 426.667969 229.644531 428.484375 229.980469 428.988281 230.304688 Z M 437.429688 236.015625 C 437.261719 240.15625 436.847656 242.46875 436.183594 242.71875 C 435.363281 242.972656 435.105469 241.3125 435.105469 236.351562 C 435.105469 230.886719 435.363281 229.644531 436.351562 229.644531 C 437.429688 229.644531 437.597656 230.71875 437.429688 236.015625 Z M 467.640625 240.15625 C 468.132812 241.144531 466.5625 246.195312 465.730469 246.195312 C 465.316406 246.195312 465.070312 244.960938 465.070312 243.46875 C 465.15625 240.484375 465.484375 239.574219 466.5625 239.574219 C 466.976562 239.574219 467.472656 239.820312 467.640625 240.15625 Z M 630.933594 240.484375 C 631.753906 241.898438 629.855469 243.46875 628.699219 242.3125 C 627.703125 241.3125 628.363281 239.574219 629.609375 239.574219 C 630.023438 239.574219 630.597656 239.988281 630.933594 240.484375 Z M 716.097656 547.375 C 717.421875 553.503906 726.027344 562.109375 732.484375 563.683594 C 735.378906 564.34375 735.378906 565.421875 732.316406 566.082031 C 726.1875 567.40625 717.582031 576.015625 716.007812 582.378906 C 715.347656 585.363281 714.269531 585.363281 713.609375 582.300781 C 712.285156 576.171875 703.675781 567.566406 697.300781 565.996094 C 694.328125 565.332031 694.328125 564.253906 697.390625 563.59375 C 703.515625 562.269531 712.125 553.660156 713.695312 547.207031 C 714.359375 544.3125 715.433594 544.3125 716.097656 547.375 Z M 716.097656 547.375 " fill-opacity="1" fill-rule="nonzero"/><path fill="#7859b6" d="M 154.875 77.695312 C 149.90625 80.007812 145.359375 84.316406 142.789062 89.195312 C 140.140625 94.15625 140.0625 105.253906 142.710938 110.136719 C 145.6875 115.679688 148.503906 118.496094 153.878906 121.144531 C 163.484375 126.027344 174.820312 124.121094 182.023438 116.589844 C 191.539062 106.660156 191.203125 91.675781 181.273438 82.160156 C 174.402344 75.539062 163.484375 73.632812 154.875 77.695312 Z M 173.167969 81.417969 C 178.050781 83.5625 183.179688 89.769531 184.335938 94.820312 C 187.398438 107.488281 177.882812 119.652344 164.886719 119.652344 C 147.671875 119.652344 138.570312 100.621094 149.242188 86.714844 C 154.046875 80.421875 165.46875 77.851562 173.167969 81.417969 Z M 173.167969 81.417969 " fill-opacity="1" fill-rule="nonzero"/><path fill="#7859b6" d="M 155.953125 132.066406 C 148.582031 132.808594 139.894531 134.882812 138.234375 136.207031 C 136.585938 137.609375 136.910156 141.671875 138.816406 142.996094 C 140.308594 144.0625 141.296875 143.984375 146.515625 142.492188 C 155.289062 140.011719 173.910156 140.011719 183.011719 142.492188 C 190.046875 144.398438 192.035156 144.152344 193.03125 141.089844 C 193.773438 138.765625 192.203125 136.375 189.136719 135.375 C 179.285156 132.234375 166.378906 130.910156 155.953125 132.066406 Z M 155.953125 132.066406 " fill-opacity="1" fill-rule="nonzero"/><path fill="#7859b6" d="M 157.773438 166.742188 C 156.773438 169.480469 154.214844 170.714844 152.476562 169.222656 C 149.90625 167.078125 145.023438 171.296875 147.089844 173.859375 C 148.667969 175.597656 147.425781 178.90625 145.023438 179.492188 C 143.285156 179.90625 142.957031 180.480469 142.957031 182.878906 C 142.957031 185.203125 143.285156 185.777344 144.609375 185.777344 C 146.929688 185.777344 148.582031 189.5 147.257812 191.65625 C 145.855469 193.890625 146.019531 194.71875 148.253906 196.121094 C 149.90625 197.199219 150.566406 197.289062 151.890625 196.457031 C 154.125 195.046875 157.851562 196.625 157.851562 199.019531 C 157.851562 200.429688 158.433594 200.679688 161.160156 200.679688 C 163.898438 200.679688 164.472656 200.429688 164.472656 199.019531 C 164.472656 196.625 168.199219 195.046875 170.429688 196.457031 C 171.921875 197.367188 172.417969 197.289062 174.15625 195.550781 C 175.894531 193.808594 176.0625 193.226562 175.234375 191.410156 C 173.988281 188.761719 175.3125 185.777344 177.800781 185.777344 C 179.207031 185.777344 179.453125 185.371094 179.207031 182.632812 C 179.039062 180.152344 178.625 179.492188 177.140625 179.324219 C 174.988281 178.996094 173.664062 175.4375 175.152344 173.945312 C 176.636719 172.453125 176.222656 171.050781 173.910156 169.480469 C 172.25 168.402344 171.429688 168.3125 170.261719 169.066406 C 168.277344 170.300781 165.46875 169.390625 164.808594 167.238281 C 163.5625 163.351562 159.007812 163.015625 157.773438 166.742188 Z M 167.207031 176.347656 C 169.9375 179.074219 170.597656 181.0625 169.9375 184.539062 C 168.691406 191.242188 160.332031 193.808594 155.203125 189.175781 C 152.890625 187.101562 152.476562 186.191406 152.476562 182.878906 C 152.476562 179.570312 152.890625 178.660156 155.203125 176.59375 C 158.847656 173.363281 164.058594 173.195312 167.207031 176.347656 Z M 167.207031 176.347656 " fill-opacity="1" fill-rule="nonzero"/><path fill="#7859b6" d="M 273.886719 168.15625 C 272.890625 170.054688 273.96875 172.871094 276.367188 174.519531 C 279.351562 176.675781 280.339844 176.179688 280.339844 172.703125 C 280.339844 167.820312 275.707031 164.589844 273.886719 168.15625 Z M 273.886719 168.15625 " fill-opacity="1" fill-rule="nonzero"/><path fill="#7859b6" d="M 87.667969 170.300781 C 85.265625 172.871094 85.355469 176.257812 87.914062 178.75 C 91.886719 182.800781 97.765625 180.320312 97.765625 174.609375 C 97.765625 168.976562 91.394531 166.328125 87.667969 170.300781 Z M 87.667969 170.300781 " fill-opacity="1" fill-rule="nonzero"/><path fill="#7859b6" d="M 126.40625 226.667969 C 126.40625 228.152344 124.003906 229.070312 122.679688 227.992188 C 121.265625 226.828125 118.292969 230.136719 119.535156 231.382812 C 120.695312 232.539062 120.03125 234.613281 118.460938 234.613281 C 117.796875 234.613281 117.292969 235.433594 117.292969 236.679688 C 117.292969 238.003906 117.796875 238.746094 118.617188 238.746094 C 119.695312 238.746094 119.863281 239.328125 119.535156 241.144531 C 118.953125 244.128906 120.445312 245.621094 123.34375 244.960938 C 124.914062 244.546875 125.65625 244.792969 126.40625 246.117188 C 127.5625 248.269531 128.390625 248.269531 130.457031 246.117188 C 131.289062 245.207031 132.691406 244.457031 133.519531 244.546875 C 136.832031 244.960938 137.324219 244.625 136.910156 242.3125 C 136.664062 240.730469 137 239.664062 138.324219 238.585938 L 140.0625 237.09375 L 137.988281 235.523438 C 136.25 234.109375 136.089844 233.617188 136.910156 232.210938 C 138.234375 230.058594 135.753906 227.65625 132.859375 228.40625 C 131.199219 228.8125 130.703125 228.566406 130.289062 227.242188 C 129.796875 225.253906 126.40625 224.761719 126.40625 226.667969 Z M 130.535156 232.539062 C 134.925781 234.773438 133.273438 241.394531 128.472656 241.394531 C 125.902344 241.394531 123.09375 238.746094 123.09375 236.265625 C 123.09375 235.027344 126.652344 231.304688 127.808594 231.304688 C 127.976562 231.304688 129.210938 231.875 130.535156 232.539062 Z M 130.535156 232.539062 " fill-opacity="1" fill-rule="nonzero"/><path fill="#7859b6" d="M 106.292969 242.71875 L 101.492188 247.519531 L 101.988281 263.90625 L 107.363281 266.554688 C 110.347656 268.046875 115.230469 270.277344 118.371094 271.355469 L 123.914062 273.511719 L 123.914062 252.15625 L 121.433594 251.167969 C 117.957031 249.675781 113.320312 244.296875 112.660156 240.898438 C 112.414062 239.25 111.917969 237.925781 111.589844 237.925781 C 111.257812 237.925781 108.855469 240.070312 106.292969 242.71875 Z M 106.292969 242.71875 " fill-opacity="1" fill-rule="nonzero"/><path fill="#7859b6" d="M 392.898438 183.957031 C 389.421875 187.4375 389.421875 192.316406 392.820312 195.796875 C 396.132812 199.105469 399.609375 199.019531 403 195.707031 C 405.234375 193.394531 405.480469 192.734375 405.066406 189.34375 C 404.570312 184.867188 402.585938 182.632812 398.445312 181.890625 C 395.882812 181.476562 395.132812 181.804688 392.898438 183.957031 Z M 392.898438 183.957031 " fill-opacity="1" fill-rule="nonzero"/><path fill="#7859b6" d="M 471.117188 182.632812 C 468.378906 184.203125 467.472656 186.03125 467.472656 189.917969 C 467.472656 193.890625 468.378906 195.707031 471.277344 197.199219 C 477.480469 200.597656 483.441406 194.550781 481.375 187.019531 C 480.128906 182.632812 475 180.398438 471.117188 182.632812 Z M 471.117188 182.632812 " fill-opacity="1" fill-rule="nonzero"/><path fill="#7859b6" d="M 614.875 182.96875 C 613.875 183.632812 613.054688 184.957031 613.054688 185.863281 C 613.054688 187.269531 613.628906 187.4375 619.675781 187.4375 C 626.960938 187.4375 627.871094 186.695312 624.390625 183.464844 C 622.078125 181.308594 617.601562 181.0625 614.875 182.96875 Z M 614.875 182.96875 " fill-opacity="1" fill-rule="nonzero"/><path fill="#7859b6" d="M 365.839844 233.449219 C 364.597656 235.433594 364.597656 235.847656 365.675781 237.835938 C 367.164062 240.484375 370.140625 241.066406 372.296875 239.082031 C 374.28125 237.261719 374.28125 234.445312 372.375 232.707031 C 370.140625 230.640625 367.492188 230.96875 365.839844 233.449219 Z M 365.839844 233.449219 " fill-opacity="1" fill-rule="nonzero"/><path fill="#7859b6" d="M 508.441406 232.628906 C 505.792969 235.277344 507.613281 240.40625 511.25 240.40625 C 513.492188 240.40625 515.390625 238.171875 515.390625 235.433594 C 515.390625 231.71875 511.089844 229.980469 508.441406 232.628906 Z M 508.441406 232.628906 " fill-opacity="1" fill-rule="nonzero"/><path fill="#7859b6" d="M 329.011719 232.210938 C 326.441406 233.617188 327.351562 234.613281 331.246094 234.613281 C 335.050781 234.613281 335.710938 234.03125 333.972656 232.292969 C 332.734375 231.054688 330.910156 231.054688 329.011719 232.210938 Z M 329.011719 232.210938 " fill-opacity="1" fill-rule="nonzero"/><path fill="#7859b6" d="M 453.488281 232.292969 C 452.90625 232.875 452.488281 234.445312 452.488281 235.847656 C 452.488281 238.914062 453.734375 240.40625 456.292969 240.40625 C 458.695312 240.40625 460.769531 238.339844 460.769531 235.847656 C 460.769531 232.125 455.96875 229.8125 453.488281 232.292969 Z M 453.488281 232.292969 " fill-opacity="1" fill-rule="nonzero"/><path fill="#7859b6" d="M 491.890625 232.378906 C 490.890625 233.121094 490.476562 234.277344 490.722656 236.265625 C 490.890625 238.585938 491.476562 239.328125 493.292969 239.910156 C 494.863281 240.484375 496.109375 240.484375 497.019531 239.910156 C 498.757812 238.832031 499.332031 234.109375 497.929688 232.460938 C 496.773438 230.96875 493.875 230.96875 491.890625 232.378906 Z M 491.890625 232.378906 " fill-opacity="1" fill-rule="nonzero"/><path fill="#7859b6" d="M 543.535156 232.539062 C 541.132812 235.433594 542.953125 240.40625 546.429688 240.40625 C 548.417969 240.40625 550.976562 238.082031 550.976562 236.183594 C 550.976562 232.378906 545.769531 229.8125 543.535156 232.539062 Z M 543.535156 232.539062 " fill-opacity="1" fill-rule="nonzero"/><path fill="#7859b6" d="M 594.269531 233.449219 C 593.023438 235.433594 593.023438 235.847656 594.101562 237.835938 C 596.335938 241.898438 602.292969 240.484375 602.292969 235.9375 C 602.292969 233.617188 599.894531 231.304688 597.492188 231.304688 C 596.503906 231.304688 595.089844 232.210938 594.269531 233.449219 Z M 594.269531 233.449219 " fill-opacity="1" fill-rule="nonzero"/><path fill="#7859b6" d="M 616.367188 232.539062 C 614.875 234.367188 615.617188 234.773438 620.171875 234.445312 C 623.976562 234.199219 624.0625 234.109375 622.652344 232.707031 C 620.832031 230.96875 617.769531 230.886719 616.367188 232.539062 Z M 616.367188 232.539062 " fill-opacity="1" fill-rule="nonzero"/><path fill="#7859b6" d="M 422.199219 232.707031 C 420.796875 234.109375 420.875 234.199219 424.679688 234.445312 C 429.238281 234.773438 429.976562 234.367188 428.484375 232.539062 C 427.082031 230.886719 424.019531 230.96875 422.199219 232.707031 Z M 422.199219 232.707031 " fill-opacity="1" fill-rule="nonzero"/></svg>